<?xml version="1.0" standalone="no"?>
<svg viewBox="0 0 200 200" xmlns="http://www.w3.org/2000/svg">
  <path fill="#66005E" d="M43.9,-65.4C58.3,-59.1,72.2,-49.2,80.8,-35.4C89.3,-21.6,92.6,-3.9,87.1,10.3C81.7,24.6,67.6,35.5,56,48.3C44.5,61.2,35.6,76.1,23.6,79.1C11.5,82.1,-3.7,73.2,-20.7,68.9C-37.6,64.6,-56.3,64.8,-67.9,56.2C-79.5,47.6,-84,30.2,-85.1,13.1C-86.1,-3.9,-83.7,-20.5,-76.2,-33.9C-68.7,-47.2,-56,-57.3,-42.4,-64C-28.9,-70.6,-14.4,-73.8,0.2,-74C14.8,-74.3,29.6,-71.7,43.9,-65.4Z" transform="translate(100 100)" />
</svg>
