<?xml version="1.0" standalone="no"?>
<svg viewBox="0 0 200 200" xmlns="http://www.w3.org/2000/svg">
  <path fill="#8F0083" d="M37.1,-60.1C45.9,-52,49.5,-38.1,56.9,-25.1C64.2,-12,75.4,0.2,76,12.4C76.5,24.5,66.4,36.6,54.8,44.4C43.3,52.3,30.4,55.8,18.5,56.1C6.7,56.3,-4,53.3,-15.2,50.6C-26.5,47.9,-38.2,45.5,-51.2,39.4C-64.2,33.3,-78.6,23.3,-80.9,11.3C-83.3,-0.8,-73.5,-15,-66.6,-30.5C-59.6,-46,-55.4,-62.9,-44.8,-70.2C-34.2,-77.4,-17.1,-75.1,-1.5,-72.8C14.1,-70.4,28.2,-68.2,37.1,-60.1Z" transform="translate(100 100)" />
</svg>
