<?xml version="1.0" standalone="no"?>
<svg viewBox="0 0 200 200" xmlns="http://www.w3.org/2000/svg">
  <path fill="#02007A" d="M38.7,-65.9C51.2,-59.9,62.9,-51.5,69.1,-40.1C75.4,-28.7,76,-14.4,75.9,-0.1C75.8,14.2,74.9,28.5,68.5,39.5C62,50.4,50,58.1,37.7,66.9C25.3,75.7,12.7,85.5,-1.3,87.8C-15.3,90.1,-30.6,84.8,-43.2,76.2C-55.9,67.6,-65.8,55.7,-74.2,42.4C-82.5,29.1,-89.4,14.6,-89.4,0C-89.4,-14.6,-82.7,-29.2,-73.9,-41.9C-65.2,-54.5,-54.5,-65.1,-41.8,-71.1C-29.2,-77,-14.6,-78.2,-0.7,-77C13.1,-75.7,26.3,-72,38.7,-65.9Z" transform="translate(100 100)" />
</svg>
