<svg id="visual" viewBox="0 0 1400 20" width="1400" height="20" xmlns="http://www.w3.org/2000/svg" xmlns:xlink="http://www.w3.org/1999/xlink" version="1.1"><path d="M0 3L10.2 3.2C20.3 3.3 40.7 3.7 61 4C81.3 4.3 101.7 4.7 122 4.7C142.3 4.7 162.7 4.3 182.8 4.7C203 5 223 6 243.2 5.8C263.3 5.7 283.7 4.3 304 4C324.3 3.7 344.7 4.3 365 4.7C385.3 5 405.7 5 426 5C446.3 5 466.7 5 487 5C507.3 5 527.7 5 548 4.7C568.3 4.3 588.7 3.7 609 3.7C629.3 3.7 649.7 4.3 669.8 4.5C690 4.7 710 4.3 730.2 4C750.3 3.7 770.7 3.3 791 3.7C811.3 4 831.7 5 852 5.5C872.3 6 892.7 6 913 5.5C933.3 5 953.7 4 974 3.7C994.3 3.3 1014.7 3.7 1035 3.7C1055.3 3.7 1075.7 3.3 1096 3C1116.3 2.7 1136.7 2.3 1156.8 2.2C1177 2 1197 2 1217.2 2C1237.3 2 1257.7 2 1278 2.3C1298.3 2.7 1318.7 3.3 1339 3.5C1359.3 3.7 1379.7 3.3 1389.8 3.2L1400 3L1400 0L1389.8 0C1379.7 0 1359.3 0 1339 0C1318.7 0 1298.3 0 1278 0C1257.7 0 1237.3 0 1217.2 0C1197 0 1177 0 1156.8 0C1136.7 0 1116.3 0 1096 0C1075.7 0 1055.3 0 1035 0C1014.7 0 994.3 0 974 0C953.7 0 933.3 0 913 0C892.7 0 872.3 0 852 0C831.7 0 811.3 0 791 0C770.7 0 750.3 0 730.2 0C710 0 690 0 669.8 0C649.7 0 629.3 0 609 0C588.7 0 568.3 0 548 0C527.7 0 507.3 0 487 0C466.7 0 446.3 0 426 0C405.7 0 385.3 0 365 0C344.7 0 324.3 0 304 0C283.7 0 263.3 0 243.2 0C223 0 203 0 182.8 0C162.7 0 142.3 0 122 0C101.7 0 81.3 0 61 0C40.7 0 20.3 0 10.2 0L0 0Z" fill="#020024"></path><path d="M0 4L10.2 4.2C20.3 4.3 40.7 4.7 61 5C81.3 5.3 101.7 5.7 122 5.8C142.3 6 162.7 6 182.8 6.2C203 6.3 223 6.7 243.2 6.5C263.3 6.3 283.7 5.7 304 5.7C324.3 5.7 344.7 6.3 365 6.5C385.3 6.7 405.7 6.3 426 6.2C446.3 6 466.7 6 487 6C507.3 6 527.7 6 548 5.8C568.3 5.7 588.7 5.3 609 5.3C629.3 5.3 649.7 5.7 669.8 5.7C690 5.7 710 5.3 730.2 4.8C750.3 4.3 770.7 3.7 791 4C811.3 4.3 831.7 5.7 852 6.2C872.3 6.7 892.7 6.3 913 6C933.3 5.7 953.7 5.3 974 5.3C994.3 5.3 1014.7 5.7 1035 5.7C1055.3 5.7 1075.7 5.3 1096 4.8C1116.3 4.3 1136.7 3.7 1156.8 3.5C1177 3.3 1197 3.7 1217.2 3.5C1237.3 3.3 1257.7 2.7 1278 2.8C1298.3 3 1318.7 4 1339 4.2C1359.3 4.3 1379.7 3.7 1389.8 3.3L1400 3L1400 1L1389.8 1.2C1379.7 1.3 1359.3 1.7 1339 1.5C1318.7 1.3 1298.3 0.7 1278 0.3C1257.7 0 1237.3 0 1217.2 0C1197 0 1177 0 1156.8 0.2C1136.7 0.3 1116.3 0.7 1096 1C1075.7 1.3 1055.3 1.7 1035 1.7C1014.7 1.7 994.3 1.3 974 1.7C953.7 2 933.3 3 913 3.5C892.7 4 872.3 4 852 3.5C831.7 3 811.3 2 791 1.7C770.7 1.3 750.3 1.7 730.2 2C710 2.3 690 2.7 669.8 2.5C649.7 2.3 629.3 1.7 609 1.7C588.7 1.7 568.3 2.3 548 2.7C527.7 3 507.3 3 487 3C466.7 3 446.3 3 426 3C405.7 3 385.3 3 365 2.7C344.7 2.3 324.3 1.7 304 2C283.7 2.3 263.3 3.7 243.2 3.8C223 4 203 3 182.8 2.7C162.7 2.3 142.3 2.7 122 2.7C101.7 2.7 81.3 2.3 61 2C40.7 1.7 20.3 1.3 10.2 1.2L0 1Z" fill="#514d6a"></path><path d="M0 6L10.2 6C20.3 6 40.7 6 61 6.5C81.3 7 101.7 8 122 8.2C142.3 8.3 162.7 7.7 182.8 7.5C203 7.3 223 7.7 243.2 7.7C263.3 7.7 283.7 7.3 304 7.7C324.3 8 344.7 9 365 9.3C385.3 9.7 405.7 9.3 426 9.2C446.3 9 466.7 9 487 8.8C507.3 8.7 527.7 8.3 548 8.2C568.3 8 588.7 8 609 8.2C629.3 8.3 649.7 8.7 669.8 8.5C690 8.3 710 7.7 730.2 7C750.3 6.3 770.7 5.7 791 5.8C811.3 6 831.7 7 852 7.8C872.3 8.7 892.7 9.3 913 8.8C933.3 8.3 953.7 6.7 974 6.2C994.3 5.7 1014.7 6.3 1035 6.8C1055.3 7.3 1075.7 7.7 1096 7.5C1116.3 7.3 1136.7 6.7 1156.8 6.2C1177 5.7 1197 5.3 1217.2 5.2C1237.3 5 1257.7 5 1278 5.5C1298.3 6 1318.7 7 1339 7C1359.3 7 1379.7 6 1389.8 5.5L1400 5L1400 1L1389.8 1.3C1379.7 1.7 1359.3 2.3 1339 2.2C1318.7 2 1298.3 1 1278 0.8C1257.7 0.7 1237.3 1.3 1217.2 1.5C1197 1.7 1177 1.3 1156.8 1.5C1136.7 1.7 1116.3 2.3 1096 2.8C1075.7 3.3 1055.3 3.7 1035 3.7C1014.7 3.7 994.3 3.3 974 3.3C953.7 3.3 933.3 3.7 913 4C892.7 4.3 872.3 4.7 852 4.2C831.7 3.7 811.3 2.3 791 2C770.7 1.7 750.3 2.3 730.2 2.8C710 3.3 690 3.7 669.8 3.7C649.7 3.7 629.3 3.3 609 3.3C588.7 3.3 568.3 3.7 548 3.8C527.7 4 507.3 4 487 4C466.7 4 446.3 4 426 4.2C405.7 4.3 385.3 4.7 365 4.5C344.7 4.3 324.3 3.7 304 3.7C283.7 3.7 263.3 4.3 243.2 4.5C223 4.7 203 4.3 182.8 4.2C162.7 4 142.3 4 122 3.8C101.7 3.7 81.3 3.3 61 3C40.7 2.7 20.3 2.3 10.2 2.2L0 2Z" fill="#a89fba"></path><path d="M0 9L10.2 8.5C20.3 8 40.7 7 61 7C81.3 7 101.7 8 122 8.8C142.3 9.7 162.7 10.3 182.8 10.7C203 11 223 11 243.2 10.5C263.3 10 283.7 9 304 9C324.3 9 344.7 10 365 10.3C385.3 10.7 405.7 10.3 426 10.2C446.3 10 466.7 10 487 9.8C507.3 9.7 527.7 9.3 548 9C568.3 8.7 588.7 8.3 609 8.8C629.3 9.3 649.7 10.7 669.8 11C690 11.3 710 10.7 730.2 9.7C750.3 8.7 770.7 7.3 791 7.2C811.3 7 831.7 8 852 8.8C872.3 9.7 892.7 10.3 913 10C933.3 9.7 953.7 8.3 974 8.2C994.3 8 1014.7 9 1035 9.7C1055.3 10.3 1075.7 10.7 1096 10.3C1116.3 10 1136.7 9 1156.8 8.5C1177 8 1197 8 1217.2 8C1237.3 8 1257.7 8 1278 8.3C1298.3 8.7 1318.7 9.3 1339 9.2C1359.3 9 1379.7 8 1389.8 7.5L1400 7L1400 3L1389.8 3.5C1379.7 4 1359.3 5 1339 5C1318.7 5 1298.3 4 1278 3.5C1257.7 3 1237.3 3 1217.2 3.2C1197 3.3 1177 3.7 1156.8 4.2C1136.7 4.7 1116.3 5.3 1096 5.5C1075.7 5.7 1055.3 5.3 1035 4.8C1014.7 4.3 994.3 3.7 974 4.2C953.7 4.7 933.3 6.3 913 6.8C892.7 7.3 872.3 6.7 852 5.8C831.7 5 811.3 4 791 3.8C770.7 3.7 750.3 4.3 730.2 5C710 5.7 690 6.3 669.8 6.5C649.7 6.7 629.3 6.3 609 6.2C588.7 6 568.3 6 548 6.2C527.7 6.3 507.3 6.7 487 6.8C466.7 7 446.3 7 426 7.2C405.7 7.3 385.3 7.7 365 7.3C344.7 7 324.3 6 304 5.7C283.7 5.3 263.3 5.7 243.2 5.7C223 5.7 203 5.3 182.8 5.5C162.7 5.7 142.3 6.3 122 6.2C101.7 6 81.3 5 61 4.5C40.7 4 20.3 4 10.2 4L0 4Z" fill="#f2e7ff"></path><path d="M0 15L10.2 14C20.3 13 40.7 11 61 11.2C81.3 11.3 101.7 13.7 122 14.8C142.3 16 162.7 16 182.8 16.2C203 16.3 223 16.7 243.2 16.7C263.3 16.7 283.7 16.3 304 15.7C324.3 15 344.7 14 365 13.3C385.3 12.7 405.7 12.3 426 12.8C446.3 13.3 466.7 14.7 487 14.8C507.3 15 527.7 14 548 13C568.3 12 588.7 11 609 11.2C629.3 11.3 649.7 12.7 669.8 13.8C690 15 710 16 730.2 15.2C750.3 14.3 770.7 11.7 791 11.2C811.3 10.7 831.7 12.3 852 13C872.3 13.7 892.7 13.3 913 13C933.3 12.7 953.7 12.3 974 12.5C994.3 12.7 1014.7 13.3 1035 13.7C1055.3 14 1075.7 14 1096 13.5C1116.3 13 1136.7 12 1156.8 11.8C1177 11.7 1197 12.3 1217.2 12.3C1237.3 12.3 1257.7 11.7 1278 12.3C1298.3 13 1318.7 15 1339 16C1359.3 17 1379.7 17 1389.8 17L1400 17L1400 5L1389.8 5.5C1379.7 6 1359.3 7 1339 7.2C1318.7 7.3 1298.3 6.7 1278 6.3C1257.7 6 1237.3 6 1217.2 6C1197 6 1177 6 1156.8 6.5C1136.7 7 1116.3 8 1096 8.3C1075.7 8.7 1055.3 8.3 1035 7.7C1014.7 7 994.3 6 974 6.2C953.7 6.3 933.3 7.7 913 8C892.7 8.3 872.3 7.7 852 6.8C831.7 6 811.3 5 791 5.2C770.7 5.3 750.3 6.7 730.2 7.7C710 8.7 690 9.3 669.8 9C649.7 8.7 629.3 7.3 609 6.8C588.7 6.3 568.3 6.7 548 7C527.7 7.3 507.3 7.7 487 7.8C466.7 8 446.3 8 426 8.2C405.7 8.3 385.3 8.7 365 8.3C344.7 8 324.3 7 304 7C283.7 7 263.3 8 243.2 8.5C223 9 203 9 182.8 8.7C162.7 8.3 142.3 7.7 122 6.8C101.7 6 81.3 5 61 5C40.7 5 20.3 6 10.2 6.5L0 7Z" fill="#f2e7ff"></path><path d="M0 17L10.2 17C20.3 17 40.7 17 61 17C81.3 17 101.7 17 122 17.3C142.3 17.7 162.7 18.3 182.8 18.7C203 19 223 19 243.2 18.8C263.3 18.7 283.7 18.3 304 18.2C324.3 18 344.7 18 365 17.8C385.3 17.7 405.7 17.3 426 17.3C446.3 17.3 466.7 17.7 487 17.7C507.3 17.7 527.7 17.3 548 17.3C568.3 17.3 588.7 17.7 609 18C629.3 18.3 649.7 18.7 669.8 18.8C690 19 710 19 730.2 18.8C750.3 18.7 770.7 18.3 791 18.3C811.3 18.3 831.7 18.7 852 18.8C872.3 19 892.7 19 913 18.8C933.3 18.7 953.7 18.3 974 18.2C994.3 18 1014.7 18 1035 18C1055.3 18 1075.7 18 1096 17.8C1116.3 17.7 1136.7 17.3 1156.8 17.2C1177 17 1197 17 1217.2 17C1237.3 17 1257.7 17 1278 17.2C1298.3 17.3 1318.7 17.7 1339 17.8C1359.3 18 1379.7 18 1389.8 18L1400 18L1400 15L1389.8 15C1379.7 15 1359.3 15 1339 14C1318.7 13 1298.3 11 1278 10.3C1257.7 9.7 1237.3 10.3 1217.2 10.3C1197 10.3 1177 9.7 1156.8 9.8C1136.7 10 1116.3 11 1096 11.5C1075.7 12 1055.3 12 1035 11.7C1014.7 11.3 994.3 10.7 974 10.5C953.7 10.3 933.3 10.7 913 11C892.7 11.3 872.3 11.7 852 11C831.7 10.3 811.3 8.7 791 9.2C770.7 9.7 750.3 12.3 730.2 13.2C710 14 690 13 669.8 11.8C649.7 10.7 629.3 9.3 609 9.2C588.7 9 568.3 10 548 11C527.7 12 507.3 13 487 12.8C466.7 12.7 446.3 11.3 426 10.8C405.7 10.3 385.3 10.7 365 11.3C344.7 12 324.3 13 304 13.7C283.7 14.3 263.3 14.7 243.2 14.7C223 14.7 203 14.3 182.8 14.2C162.7 14 142.3 14 122 12.8C101.7 11.7 81.3 9.3 61 9.2C40.7 9 20.3 11 10.2 12L0 13Z" fill="#a89fba"></path><path d="M0 20L10.2 20C20.3 20 40.7 20 61 19.8C81.3 19.7 101.7 19.3 122 19.3C142.3 19.3 162.7 19.7 182.8 19.8C203 20 223 20 243.2 19.8C263.3 19.7 283.7 19.3 304 19.3C324.3 19.3 344.7 19.7 365 19.8C385.3 20 405.7 20 426 20C446.3 20 466.7 20 487 19.8C507.3 19.7 527.7 19.3 548 19.5C568.3 19.7 588.7 20.3 609 20.5C629.3 20.7 649.7 20.3 669.8 20.2C690 20 710 20 730.2 20C750.3 20 770.7 20 791 20C811.3 20 831.7 20 852 20.2C872.3 20.3 892.7 20.7 913 20.7C933.3 20.7 953.7 20.3 974 20C994.3 19.7 1014.7 19.3 1035 19.3C1055.3 19.3 1075.7 19.7 1096 19.7C1116.3 19.7 1136.7 19.3 1156.8 19.2C1177 19 1197 19 1217.2 19C1237.3 19 1257.7 19 1278 19.2C1298.3 19.3 1318.7 19.7 1339 20C1359.3 20.3 1379.7 20.7 1389.8 20.8L1400 21L1400 16L1389.8 16C1379.7 16 1359.3 16 1339 15.8C1318.7 15.7 1298.3 15.3 1278 15.2C1257.7 15 1237.3 15 1217.2 15C1197 15 1177 15 1156.8 15.2C1136.7 15.3 1116.3 15.7 1096 15.8C1075.7 16 1055.3 16 1035 16C1014.7 16 994.3 16 974 16.2C953.7 16.3 933.3 16.7 913 16.8C892.7 17 872.3 17 852 16.8C831.7 16.7 811.3 16.3 791 16.3C770.7 16.3 750.3 16.7 730.2 16.8C710 17 690 17 669.8 16.8C649.7 16.7 629.3 16.3 609 16C588.7 15.7 568.3 15.3 548 15.3C527.7 15.3 507.3 15.7 487 15.7C466.7 15.7 446.3 15.3 426 15.3C405.7 15.3 385.3 15.7 365 15.8C344.7 16 324.3 16 304 16.2C283.7 16.3 263.3 16.7 243.2 16.8C223 17 203 17 182.8 16.7C162.7 16.3 142.3 15.7 122 15.3C101.7 15 81.3 15 61 15C40.7 15 20.3 15 10.2 15L0 15Z" fill="#514d6a"></path><path d="M0 21L10.2 21C20.3 21 40.7 21 61 21C81.3 21 101.7 21 122 21C142.3 21 162.7 21 182.8 21C203 21 223 21 243.2 21C263.3 21 283.7 21 304 21C324.3 21 344.7 21 365 21C385.3 21 405.7 21 426 21C446.3 21 466.7 21 487 21C507.3 21 527.7 21 548 21C568.3 21 588.7 21 609 21C629.3 21 649.7 21 669.8 21C690 21 710 21 730.2 21C750.3 21 770.7 21 791 21C811.3 21 831.7 21 852 21C872.3 21 892.7 21 913 21C933.3 21 953.7 21 974 21C994.3 21 1014.7 21 1035 21C1055.3 21 1075.7 21 1096 21C1116.3 21 1136.7 21 1156.8 21C1177 21 1197 21 1217.2 21C1237.3 21 1257.7 21 1278 21C1298.3 21 1318.7 21 1339 21C1359.3 21 1379.7 21 1389.8 21L1400 21L1400 19L1389.8 18.8C1379.7 18.7 1359.3 18.3 1339 18C1318.7 17.7 1298.3 17.3 1278 17.2C1257.7 17 1237.3 17 1217.2 17C1197 17 1177 17 1156.8 17.2C1136.7 17.3 1116.3 17.7 1096 17.7C1075.7 17.7 1055.3 17.3 1035 17.3C1014.7 17.3 994.3 17.7 974 18C953.7 18.3 933.3 18.7 913 18.7C892.7 18.7 872.3 18.3 852 18.2C831.7 18 811.3 18 791 18C770.7 18 750.3 18 730.2 18C710 18 690 18 669.8 18.2C649.7 18.3 629.3 18.7 609 18.5C588.7 18.3 568.3 17.7 548 17.5C527.7 17.3 507.3 17.7 487 17.8C466.7 18 446.3 18 426 18C405.7 18 385.3 18 365 17.8C344.7 17.7 324.3 17.3 304 17.3C283.7 17.3 263.3 17.7 243.2 17.8C223 18 203 18 182.8 17.8C162.7 17.7 142.3 17.3 122 17.3C101.7 17.3 81.3 17.7 61 17.8C40.7 18 20.3 18 10.2 18L0 18Z" fill="#020024"></path></svg>